<svg xmlns="http://www.w3.org/2000/svg" xmlns:xlink="http://www.w3.org/1999/xlink" width="500" zoomAndPan="magnify" viewBox="0 0 375 374.999991" height="500" preserveAspectRatio="xMidYMid meet" version="1.0"><defs><g/></defs><g fill="#000000" fill-opacity="1"><g transform="translate(90.174695, 165.401255)"><g><path d="M 10.234375 0.234375 C 8.660156 0.234375 7.25 -0.0390625 6 -0.59375 C 4.75 -1.15625 3.769531 -1.9375 3.0625 -2.9375 C 2.351562 -3.9375 1.984375 -5.085938 1.953125 -6.390625 L 5.296875 -6.390625 C 5.410156 -5.265625 5.875 -4.316406 6.6875 -3.546875 C 7.5 -2.785156 8.679688 -2.40625 10.234375 -2.40625 C 11.722656 -2.40625 12.894531 -2.773438 13.75 -3.515625 C 14.613281 -4.265625 15.046875 -5.222656 15.046875 -6.390625 C 15.046875 -7.304688 14.789062 -8.050781 14.28125 -8.625 C 13.78125 -9.195312 13.148438 -9.628906 12.390625 -9.921875 C 11.640625 -10.222656 10.625 -10.546875 9.34375 -10.890625 C 7.757812 -11.304688 6.492188 -11.71875 5.546875 -12.125 C 4.597656 -12.539062 3.785156 -13.1875 3.109375 -14.0625 C 2.429688 -14.945312 2.09375 -16.132812 2.09375 -17.625 C 2.09375 -18.925781 2.425781 -20.082031 3.09375 -21.09375 C 3.757812 -22.101562 4.691406 -22.878906 5.890625 -23.421875 C 7.097656 -23.972656 8.476562 -24.25 10.03125 -24.25 C 12.28125 -24.25 14.117188 -23.6875 15.546875 -22.5625 C 16.972656 -21.445312 17.78125 -19.960938 17.96875 -18.109375 L 14.53125 -18.109375 C 14.414062 -19.023438 13.929688 -19.832031 13.078125 -20.53125 C 12.234375 -21.226562 11.113281 -21.578125 9.71875 -21.578125 C 8.414062 -21.578125 7.351562 -21.238281 6.53125 -20.5625 C 5.707031 -19.882812 5.296875 -18.941406 5.296875 -17.734375 C 5.296875 -16.859375 5.539062 -16.144531 6.03125 -15.59375 C 6.519531 -15.050781 7.125 -14.632812 7.84375 -14.34375 C 8.570312 -14.0625 9.585938 -13.734375 10.890625 -13.359375 C 12.472656 -12.929688 13.742188 -12.503906 14.703125 -12.078125 C 15.671875 -11.648438 16.492188 -10.992188 17.171875 -10.109375 C 17.859375 -9.234375 18.203125 -8.039062 18.203125 -6.53125 C 18.203125 -5.363281 17.894531 -4.265625 17.28125 -3.234375 C 16.664062 -2.203125 15.75 -1.363281 14.53125 -0.71875 C 13.320312 -0.0820312 11.890625 0.234375 10.234375 0.234375 Z M 10.234375 0.234375 "/></g></g></g><g fill="#000000" fill-opacity="1"><g transform="translate(112.054962, 165.401255)"><g><path d="M 5.703125 -23.953125 L 5.703125 -8.796875 C 5.703125 -6.660156 6.222656 -5.078125 7.265625 -4.046875 C 8.304688 -3.023438 9.753906 -2.515625 11.609375 -2.515625 C 13.441406 -2.515625 14.878906 -3.023438 15.921875 -4.046875 C 16.960938 -5.078125 17.484375 -6.660156 17.484375 -8.796875 L 17.484375 -23.953125 L 20.609375 -23.953125 L 20.609375 -8.828125 C 20.609375 -6.835938 20.207031 -5.160156 19.40625 -3.796875 C 18.601562 -2.429688 17.519531 -1.414062 16.15625 -0.75 C 14.800781 -0.09375 13.273438 0.234375 11.578125 0.234375 C 9.878906 0.234375 8.347656 -0.09375 6.984375 -0.75 C 5.628906 -1.414062 4.554688 -2.429688 3.765625 -3.796875 C 2.972656 -5.160156 2.578125 -6.835938 2.578125 -8.828125 L 2.578125 -23.953125 Z M 5.703125 -23.953125 "/></g></g></g><g fill="#000000" fill-opacity="1"><g transform="translate(136.957819, 165.401255)"><g><path d="M 15.640625 0 L 5.765625 -10.921875 L 5.765625 0 L 2.640625 0 L 2.640625 -23.953125 L 5.765625 -23.953125 L 5.765625 -12.84375 L 15.671875 -23.953125 L 19.625 -23.953125 L 8.765625 -11.953125 L 19.71875 0 Z M 15.640625 0 "/></g></g></g><g fill="#000000" fill-opacity="1"><g transform="translate(159.250256, 165.401255)"><g><path d="M 13.5 0.234375 C 11.28125 0.234375 9.253906 -0.285156 7.421875 -1.328125 C 5.585938 -2.367188 4.140625 -3.820312 3.078125 -5.6875 C 2.015625 -7.550781 1.484375 -9.648438 1.484375 -11.984375 C 1.484375 -14.328125 2.015625 -16.429688 3.078125 -18.296875 C 4.140625 -20.160156 5.585938 -21.613281 7.421875 -22.65625 C 9.253906 -23.695312 11.28125 -24.21875 13.5 -24.21875 C 15.75 -24.21875 17.789062 -23.695312 19.625 -22.65625 C 21.457031 -21.613281 22.898438 -20.164062 23.953125 -18.3125 C 25.003906 -16.457031 25.53125 -14.347656 25.53125 -11.984375 C 25.53125 -9.628906 25.003906 -7.523438 23.953125 -5.671875 C 22.898438 -3.816406 21.457031 -2.367188 19.625 -1.328125 C 17.789062 -0.285156 15.75 0.234375 13.5 0.234375 Z M 13.5 -2.46875 C 15.175781 -2.46875 16.679688 -2.859375 18.015625 -3.640625 C 19.359375 -4.421875 20.410156 -5.53125 21.171875 -6.96875 C 21.941406 -8.414062 22.328125 -10.085938 22.328125 -11.984375 C 22.328125 -13.910156 21.941406 -15.585938 21.171875 -17.015625 C 20.410156 -18.453125 19.363281 -19.5625 18.03125 -20.34375 C 16.707031 -21.125 15.195312 -21.515625 13.5 -21.515625 C 11.800781 -21.515625 10.285156 -21.125 8.953125 -20.34375 C 7.628906 -19.5625 6.582031 -18.453125 5.8125 -17.015625 C 5.050781 -15.585938 4.671875 -13.910156 4.671875 -11.984375 C 4.671875 -10.085938 5.050781 -8.414062 5.8125 -6.96875 C 6.582031 -5.53125 7.640625 -4.421875 8.984375 -3.640625 C 10.328125 -2.859375 11.832031 -2.46875 13.5 -2.46875 Z M 13.5 -2.46875 "/></g></g></g><g fill="#000000" fill-opacity="1"><g transform="translate(187.965701, 165.401255)"><g><path d="M 13.5 0.234375 C 11.28125 0.234375 9.253906 -0.285156 7.421875 -1.328125 C 5.585938 -2.367188 4.140625 -3.820312 3.078125 -5.6875 C 2.015625 -7.550781 1.484375 -9.648438 1.484375 -11.984375 C 1.484375 -14.328125 2.015625 -16.429688 3.078125 -18.296875 C 4.140625 -20.160156 5.585938 -21.613281 7.421875 -22.65625 C 9.253906 -23.695312 11.28125 -24.21875 13.5 -24.21875 C 15.75 -24.21875 17.789062 -23.695312 19.625 -22.65625 C 21.457031 -21.613281 22.898438 -20.164062 23.953125 -18.3125 C 25.003906 -16.457031 25.53125 -14.347656 25.53125 -11.984375 C 25.53125 -9.628906 25.003906 -7.523438 23.953125 -5.671875 C 22.898438 -3.816406 21.457031 -2.367188 19.625 -1.328125 C 17.789062 -0.285156 15.75 0.234375 13.5 0.234375 Z M 13.5 -2.46875 C 15.175781 -2.46875 16.679688 -2.859375 18.015625 -3.640625 C 19.359375 -4.421875 20.410156 -5.53125 21.171875 -6.96875 C 21.941406 -8.414062 22.328125 -10.085938 22.328125 -11.984375 C 22.328125 -13.910156 21.941406 -15.585938 21.171875 -17.015625 C 20.410156 -18.453125 19.363281 -19.5625 18.03125 -20.34375 C 16.707031 -21.125 15.195312 -21.515625 13.5 -21.515625 C 11.800781 -21.515625 10.285156 -21.125 8.953125 -20.34375 C 7.628906 -19.5625 6.582031 -18.453125 5.8125 -17.015625 C 5.050781 -15.585938 4.671875 -13.910156 4.671875 -11.984375 C 4.671875 -10.085938 5.050781 -8.414062 5.8125 -6.96875 C 6.582031 -5.53125 7.640625 -4.421875 8.984375 -3.640625 C 10.328125 -2.859375 11.832031 -2.46875 13.5 -2.46875 Z M 13.5 -2.46875 "/></g></g></g><g fill="#000000" fill-opacity="1"><g transform="translate(216.681145, 165.401255)"><g><path d="M 21.46875 0 L 18.34375 0 L 5.765625 -19.0625 L 5.765625 0 L 2.640625 0 L 2.640625 -23.984375 L 5.765625 -23.984375 L 18.34375 -4.953125 L 18.34375 -23.984375 L 21.46875 -23.984375 Z M 21.46875 0 "/></g></g></g><g fill="#000000" fill-opacity="1"><g transform="translate(242.545741, 165.401255)"><g><path d="M 3.640625 0.203125 C 3.046875 0.203125 2.539062 0 2.125 -0.40625 C 1.71875 -0.820312 1.515625 -1.328125 1.515625 -1.921875 C 1.515625 -2.515625 1.71875 -3.015625 2.125 -3.421875 C 2.539062 -3.835938 3.046875 -4.046875 3.640625 -4.046875 C 4.210938 -4.046875 4.695312 -3.835938 5.09375 -3.421875 C 5.5 -3.015625 5.703125 -2.515625 5.703125 -1.921875 C 5.703125 -1.328125 5.5 -0.820312 5.09375 -0.40625 C 4.695312 0 4.210938 0.203125 3.640625 0.203125 Z M 3.640625 0.203125 "/></g></g></g><g fill="#000000" fill-opacity="1"><g transform="translate(251.476939, 165.401255)"><g><path d="M 16.796875 -5.328125 L 6.359375 -5.328125 L 4.4375 0 L 1.140625 0 L 9.796875 -23.8125 L 13.40625 -23.8125 L 22.03125 0 L 18.71875 0 Z M 15.90625 -7.875 L 11.578125 -19.96875 L 7.25 -7.875 Z M 15.90625 -7.875 "/></g></g></g><g fill="#000000" fill-opacity="1"><g transform="translate(276.345452, 165.401255)"><g><path d="M 5.765625 -23.953125 L 5.765625 0 L 2.640625 0 L 2.640625 -23.953125 Z M 5.765625 -23.953125 "/></g></g></g></svg>